<?xml version="1.0" encoding="UTF-8"?><svg id="Layer_1" xmlns="http://www.w3.org/2000/svg" xmlns:xlink="http://www.w3.org/1999/xlink" viewBox="0 0 500 500"><defs><style>.cls-1{fill:#fff;}.cls-2{fill:url(#linear-gradient);}</style><linearGradient id="linear-gradient" x1="77.55" y1="259.34" x2="441.13" y2="259.34" gradientTransform="matrix(1, 0, 0, 1, 0, 0)" gradientUnits="userSpaceOnUse"><stop offset="0" stop-color="#58a73d"/><stop offset="1" stop-color="#23245a"/></linearGradient></defs><rect class="cls-2" x="77.55" y="160.97" width="363.57" height="196.75" rx="32.02" ry="32.02"/><g><path class="cls-1" d="M269.5,307.53c-.35,.01-.71,.02-1.06,.02s-.71-.01-1.06-.02h2.12Z"/><path class="cls-1" d="M268.81,291.53c-.26,.01-.52,.02-.78,.02s-.52-.01-.78-.02h1.56Z"/><path class="cls-1" d="M283.19,275.53v.46c0-.16,0-.31-.02-.46h.02Z"/><path class="cls-1" d="M283.2,276.38c0,.13,0,.26-.01,.39v-.78c.01,.13,.01,.26,.01,.39Z"/><path class="cls-1" d="M268.81,291.53c-.26,.01-.52,.02-.78,.02s-.52-.01-.78-.02h1.56Z"/><path class="cls-1" d="M283.2,276.38c0,.13,0,.26-.01,.39v-.78c.01,.13,.01,.26,.01,.39Z"/><path class="cls-1" d="M273.15,236.78c0,2.91-2.18,5.31-5,5.65-.23,.04-.46,.05-.7,.05-3.15,0-5.71-2.55-5.71-5.7s2.56-5.71,5.71-5.71c.24,0,.47,0,.7,.05,2.82,.34,5,2.75,5,5.66Z"/><path class="cls-1" d="M279.67,276.32c0,6.49-5.26,11.75-11.74,11.75-.28,0-.56-.01-.83-.04-6.1-.42-10.92-5.5-10.92-11.71,0-.36,.02-.73,.05-1.08,.52-5.7,5.12-10.23,10.87-10.62,.27-.03,.55-.04,.83-.04,6.12,0,11.14,4.68,11.69,10.66,.03,.35,.05,.72,.05,1.08Z"/><path class="cls-1" d="M299.16,274.36c-.42-5.46-2.27-10.54-5.16-14.83-1.34-1.99-2.9-3.8-4.65-5.42-1.91-1.77-2.3-4.66-.8-6.79,.83-1.19,1.55-2.45,2.14-3.79,1.28-2.83,1.98-5.97,1.98-9.28,0-2.34-.35-4.6-1.01-6.72-1.48-4.79-4.5-8.89-8.47-11.74-3.73-2.69-8.3-4.26-13.24-4.26h-42.76c-4.42,0-8,3.58-8,8v80c0,4.42,3.58,8,8,8h42.31c4.95-.16,9.6-1.5,13.69-3.73,5.18-2.83,9.45-7.1,12.28-12.27,2.06-3.74,3.35-7.94,3.69-12.42,.01-.22,.02-.59,.03-.81v-3.12c0-.22-.02-.59-.03-.82Zm-15.97,2.41c-.2,7.94-6.49,14.36-14.38,14.76-.26,.01-.52,.02-.78,.02s-.52-.01-.78-.02h-24.06c-4.42,0-8-3.58-8-8v-48c0-4.42,3.58-8,8-8h25.18c2.1,0,4.15,.78,5.61,2.29,1.64,1.72,2.65,4.04,2.65,6.6,0,2.83-1.23,5.37-3.19,7.11-1.12,1-2.47,1.74-3.97,2.12-.07,.02-.14,.03-.21,.05-.06,.02-.11,.03-.17,.05-.68,.2-1.31,.49-1.9,.85-2.3,1.42-3.84,3.96-3.84,6.85s1.54,5.43,3.84,6.84c.56,.34,1.17,.62,1.81,.82,.02,.01,.04,.02,.06,.02,.22,.07,.45,.13,.68,.18,.01-.01,.01,0,.02,0,.29,.03,.58,.07,.86,.12,6.87,1.18,12.17,6.98,12.55,14.1h.02v.46c.01,.13,.01,.26,.01,.39s0,.26-.01,.39Z"/></g><path class="cls-1" d="M343.01,258.16c-.31,.02-.61,.03-.92,.03s-.61-.01-.92-.03h1.84Z"/><path class="cls-1" d="M326.79,250.8v1.36c0-.09-.01-.18-.01-.27v-1.18s0,.06,.01,.09Z"/><path class="cls-1" d="M353.68,242.91c0,6.49-5.26,11.75-11.74,11.75-.28,0-.56-.01-.83-.04-6.1-.42-10.92-5.5-10.92-11.71,0-.36,.02-.73,.05-1.08,.52-5.7,5.12-10.23,10.87-10.62,.27-.03,.55-.04,.83-.04,6.12,0,11.14,4.68,11.69,10.66,.03,.35,.05,.72,.05,1.08Z"/><path class="cls-1" d="M341.17,258.16h1.84c-.31,.02-.61,.03-.92,.03s-.61-.01-.92-.03Z"/><g><path class="cls-1" d="M380.87,242.74c0,3.13-2.54,5.69-5.68,5.7h-.02c-3.15,0-5.71-2.56-5.71-5.7,0-.05,0-.1,.01-.15,.07-3.08,2.6-5.56,5.7-5.56h.02c3.09,.01,5.6,2.48,5.67,5.56,.01,.05,.01,.1,.01,.15Z"/><path class="cls-1" d="M342.27,283.41c0,.08,0,.16-.01,.24-.12,3.04-2.62,5.46-5.69,5.46h-.06c-3.04-.03-5.51-2.44-5.63-5.46-.01-.08-.01-.16-.01-.24,0-3.13,2.52-5.67,5.64-5.7h.06c3.15,0,5.7,2.55,5.7,5.7Z"/><path class="cls-1" d="M390.75,219.03c-.3-4.24-4.02-7.42-8.26-7.42h-63.72c-4.42,0-8,3.58-8,8v80c0,2.21,.89,4.21,2.34,5.66,1.58,1.58,3.8,2.49,6.24,2.32,4.24-.3,7.42-4.02,7.42-8.26v-15.72c0-.19,.01-.37,.02-.55v-1.54c.32-4.12,3.77-7.36,7.97-7.36h37.57c2.21,0,4.21-.89,5.66-2.34,1.44-1.45,2.34-3.45,2.34-5.66,0-4.42-3.58-8-8-8h-29.32c-.31,.02-.61,.03-.92,.03s-.61-.01-.92-.03c-8.02-.47-14.38-7.12-14.38-15.26s6.85-15.29,15.3-15.29h40.68c2.21,0,4.21-.89,5.66-2.34,1.58-1.58,2.49-3.8,2.32-6.24Zm-63.96,33.13c0-.09-.01-.18-.01-.27v-1.18s0,.06,.01,.09v1.36Z"/><path class="cls-1" d="M353.68,242.91c0,6.49-5.26,11.75-11.74,11.75-.28,0-.56-.01-.83-.04-6.1-.42-10.92-5.5-10.92-11.71,0-.36,.02-.73,.05-1.08,.52-5.7,5.12-10.23,10.87-10.62,.27-.03,.55-.04,.83-.04,6.12,0,11.14,4.68,11.69,10.66,.03,.35,.05,.72,.05,1.08Z"/></g><g><path class="cls-1" d="M198.06,242.74c0,3.13-2.54,5.69-5.68,5.7h-.02c-3.15,0-5.71-2.56-5.71-5.7,0-.05,0-.1,.01-.15,.07-3.08,2.6-5.56,5.7-5.56h.02c3.09,.01,5.6,2.48,5.67,5.56,.01,.05,.01,.1,.01,.15Z"/><path class="cls-1" d="M159.46,283.41c0,.08,0,.16-.01,.24-.12,3.04-2.62,5.46-5.69,5.46h-.06c-3.04-.03-5.51-2.44-5.63-5.46-.01-.08-.01-.16-.01-.24,0-3.13,2.52-5.67,5.64-5.7h.06c3.15,0,5.7,2.55,5.7,5.7Z"/><path class="cls-1" d="M207.94,219.03c-.3-4.24-4.02-7.42-8.26-7.42h-63.72c-4.42,0-8,3.58-8,8v80c0,2.21,.89,4.21,2.34,5.66,1.58,1.58,3.8,2.49,6.24,2.32,4.24-.3,7.42-4.02,7.42-8.26v-15.72c0-.19,.01-.37,.02-.55v-1.54c.32-4.12,3.77-7.36,7.97-7.36h37.57c2.21,0,4.21-.89,5.66-2.34,1.44-1.45,2.34-3.45,2.34-5.66,0-4.42-3.58-8-8-8h-29.32c-.31,.02-.61,.03-.92,.03s-.61-.01-.92-.03c-8.02-.47-14.38-7.12-14.38-15.26s6.85-15.29,15.3-15.29h40.68c2.21,0,4.21-.89,5.66-2.34,1.58-1.58,2.49-3.8,2.32-6.24Zm-63.96,33.13c0-.09-.01-.18-.01-.27v-1.18s0,.06,.01,.09v1.36Z"/><path class="cls-1" d="M170.87,242.91c0,6.49-5.26,11.75-11.74,11.75-.28,0-.56-.01-.83-.04-6.1-.42-10.92-5.5-10.92-11.71,0-.36,.02-.73,.05-1.08,.52-5.7,5.12-10.23,10.87-10.62,.27-.03,.55-.04,.83-.04,6.12,0,11.14,4.68,11.69,10.66,.03,.35,.05,.72,.05,1.08Z"/></g></svg>